<svg xmlns="http://www.w3.org/2000/svg" xmlns:xlink="http://www.w3.org/1999/xlink" width="200" height="40.113" viewBox="0 0 200 40.113"><defs><clipPath id="a"><rect width="200" height="40.113" fill="#fff"/></clipPath></defs><g clip-path="url(#a)"><path d="M198.963,20.427H141.694c-.109-.161-.225-.328-.346-.484a10,10,0,0,0-7.668-4.194,8.206,8.206,0,0,0-3.128.559,4.657,4.657,0,0,0,.242-.513,5.237,5.237,0,0,0-2.927-6.752c-.714-.374-5.761-2.529-11.983,1.838a17.554,17.554,0,0,1-5.859,2.731l-.242.058a6.279,6.279,0,0,1-5.79-1.6,5.672,5.672,0,0,1-1.723-5.208c.029-.156.063-.305.1-.455a4.821,4.821,0,0,1,2.541-3.076,4.482,4.482,0,0,1,4.977.144,3.758,3.758,0,0,1,1.273,3.883,2.61,2.61,0,0,1-1.342,1.63,2.431,2.431,0,0,1-2.7-.017,1.92,1.92,0,0,1-.657-1.993,1.276,1.276,0,0,1,1.55-.916,1.331,1.331,0,1,0,.674-2.575,3.943,3.943,0,0,0-4.8,2.817,4.59,4.59,0,0,0,1.573,4.753,5.02,5.02,0,0,0,5.594.288,5.273,5.273,0,0,0,2.679-3.312A6.421,6.421,0,0,0,111.548,1.4,7.092,7.092,0,0,0,103.69.967a7.55,7.55,0,0,0-3.848,4.6,7.568,7.568,0,0,0-3.848-4.6,7.092,7.092,0,0,0-7.858.438,6.432,6.432,0,0,0-2.183,6.631,5.292,5.292,0,0,0,2.679,3.312,5.02,5.02,0,0,0,5.594-.288A4.59,4.59,0,0,0,95.8,6.307,3.95,3.95,0,0,0,91,3.49a1.331,1.331,0,1,0,.674,2.575,1.276,1.276,0,0,1,1.55.916,1.92,1.92,0,0,1-.657,1.993,2.429,2.429,0,0,1-2.7.017,2.624,2.624,0,0,1-1.342-1.63,3.772,3.772,0,0,1,1.273-3.883,4.483,4.483,0,0,1,4.977-.144,4.807,4.807,0,0,1,2.541,3.076,4.275,4.275,0,0,1,.1.455,5.672,5.672,0,0,1-1.722,5.208,6.283,6.283,0,0,1-5.79,1.6l-.242-.058A17.441,17.441,0,0,1,83.8,10.881C77.576,6.514,72.529,8.669,71.815,9.043A5.237,5.237,0,0,0,68.888,15.8a4.62,4.62,0,0,0,.455.87c-.121-.035-.236-.069-.357-.092a8.257,8.257,0,0,0-1.711-.2,9.9,9.9,0,0,0-7.99,4.344c-.058.075-.1.156-.156.23H1.037a1.037,1.037,0,1,0,0,2.074H57.995a10.044,10.044,0,0,0-.772,3.693,9.254,9.254,0,0,0,.2,2.068c.058.294.127.582.207.87a11.184,11.184,0,0,0,7.558,7.725,12.314,12.314,0,0,0,3.514.57,12.037,12.037,0,0,0,7.829-2.736L76.781,35a27.5,27.5,0,0,0,6.492-8.013,15.552,15.552,0,0,1,7.155-7.069,9.912,9.912,0,0,1,3.946-.962h.161c.144-.012.282-.017.426-.017a3.965,3.965,0,0,1,2.518.945,4.066,4.066,0,0,1,1.434,2.765,2.757,2.757,0,0,1,.012.305,2.973,2.973,0,0,1-2.662,2.909h-.179a2.018,2.018,0,0,1-1.36-.565,2.055,2.055,0,0,1-.743-1.481,1.42,1.42,0,0,1,.075-.432,1.389,1.389,0,0,1,1.181-.927,1.426,1.426,0,0,0,1.3-1.394v-.144a1.432,1.432,0,0,0-1.406-1.3h-.138a4.244,4.244,0,0,0-3.854,4.154,5.084,5.084,0,0,0,4.908,4.937,4.8,4.8,0,0,0,.5-.017,5.721,5.721,0,0,0,1.377-.328,3.774,3.774,0,0,0-1.152,2.108,7.029,7.029,0,0,0-.109,1.152,13.113,13.113,0,0,0,1.267,5.254A19.6,19.6,0,0,0,99.312,39.5a1.407,1.407,0,0,0,1.169.616,1.426,1.426,0,0,0,1.233-.639,19.608,19.608,0,0,0,1.273-2.494,13.773,13.773,0,0,0,1.239-5.041,7.191,7.191,0,0,0-.138-1.532,3.8,3.8,0,0,0-1.181-2.085,5.7,5.7,0,0,0,1.371.3c.086.006.179.012.271.012a5.094,5.094,0,0,0,5.035-4.828,4.386,4.386,0,0,0-.259-1.527,4.231,4.231,0,0,0-3.652-2.754h-.081a1.411,1.411,0,0,0-1.44,1.3v.1a1.426,1.426,0,0,0,1.325,1.44,1.384,1.384,0,0,1,1.2.9,1.471,1.471,0,0,1,.086.5,2.1,2.1,0,0,1-.714,1.429,2.052,2.052,0,0,1-1.429.6h-.1a2.986,2.986,0,0,1-2.719-3.013v-.161a4.089,4.089,0,0,1,1.388-2.788,3.991,3.991,0,0,1,2.708-1l.225.012h.328a10.537,10.537,0,0,1,4.344,1.141,15.876,15.876,0,0,1,6.729,6.683,27.434,27.434,0,0,0,6.619,7.875l.277.219A12.11,12.11,0,0,0,135.8,36.719a11.187,11.187,0,0,0,7.414-7.864c.075-.288.138-.576.2-.87a9.716,9.716,0,0,0-.57-5.473h56.157a1.037,1.037,0,1,0,0-2.074ZM132.241,18.75a5.5,5.5,0,0,1,1.429-.161,6.5,6.5,0,0,1,4.269,1.838h-3.8c-.115-.029-.225-.058-.34-.081l-.236-.023a1.444,1.444,0,0,0-.778.225,1.09,1.09,0,0,0-.438.432,1.5,1.5,0,0,0-.2.5v.006l-.023.242a1.417,1.417,0,0,0,1.164,1.417,2.226,2.226,0,0,1,1.815,2.224,2.057,2.057,0,0,1-.035.374,3.14,3.14,0,0,1-2.356,2.489,3.191,3.191,0,0,1-.766.086,4.11,4.11,0,0,1-3.122-1.832,4.176,4.176,0,0,1-.876-2.587,3.316,3.316,0,0,1,.063-.628,5.72,5.72,0,0,1,4.252-4.517Zm-4.332-5.542a1.338,1.338,0,0,0,.017-.91,2.477,2.477,0,0,1,.334.559,2.6,2.6,0,0,1,.046,1.982,1.8,1.8,0,0,1-2.3,1.043,1.123,1.123,0,0,1-.622-.662,1.015,1.015,0,0,1,.1-1.1.663.663,0,0,1,.709-.15A1.332,1.332,0,0,0,127.909,13.209Zm-56.48-.346a2.477,2.477,0,0,1,.334-.559,1.33,1.33,0,0,0,1.74,1.671.672.672,0,0,1,.709.15.993.993,0,0,1,.1,1.1,1.123,1.123,0,0,1-.622.662,1.8,1.8,0,0,1-2.3-1.043A2.57,2.57,0,0,1,71.429,12.863Zm-4.205,6.354a5.7,5.7,0,0,1,5.5,4.574,3.789,3.789,0,0,1,.075.807,4.261,4.261,0,0,1-.83,2.425,4.04,4.04,0,0,1-3.232,1.9,3.267,3.267,0,0,1-.622-.069,3.146,3.146,0,0,1-2.4-2.448,2.278,2.278,0,0,1-.046-.478,2.237,2.237,0,0,1,1.774-2.155A1.418,1.418,0,0,0,68.572,22.4a1.4,1.4,0,0,0-.029-.305,1.424,1.424,0,0,0-1.371-1.141c-.069,0-.138.012-.213.017a1.27,1.27,0,0,0-.207-.023H62.92a6.333,6.333,0,0,1,4.3-1.728Zm21.926-1.843a18.426,18.426,0,0,0-8.371,8.238A24.978,24.978,0,0,1,75,32.778l-.012.012-.271.225a9.266,9.266,0,0,1-8.682,1.653,8.371,8.371,0,0,1-5.68-5.784c-.063-.219-.115-.444-.161-.668a6.9,6.9,0,0,1-.144-1.492,7.208,7.208,0,0,1,1.112-3.7h2.581a5.094,5.094,0,0,0-.933,2.857,5.4,5.4,0,0,0,.1,1.089,6,6,0,0,0,4.58,4.661,5.9,5.9,0,0,0,1.181.138,6.859,6.859,0,0,0,5.582-3.059,7.119,7.119,0,0,0,1.377-4.061,6.527,6.527,0,0,0-.132-1.417,8.552,8.552,0,0,0-2.569-4.568,4.45,4.45,0,0,0,1.694-.277,3.813,3.813,0,0,0,2.183-2.224,3.593,3.593,0,0,0-.726-3.923A3.353,3.353,0,0,0,73.33,11.3c1.066-.4,4.557-1.319,8.958,1.774A20,20,0,0,0,89.1,16.221l.207.052a9.124,9.124,0,0,0,2.327.23,14.315,14.315,0,0,0-2.483.881Zm11.32,18.245a10.382,10.382,0,0,1-.979-3.94A3.618,3.618,0,0,1,99.554,31a.927.927,0,0,1,.334-.6.9.9,0,0,1,.524-.167h.017a.866.866,0,0,1,.513.167.921.921,0,0,1,.34.582,4.235,4.235,0,0,1,.081.951,10.594,10.594,0,0,1-.9,3.687Zm-.962-8.106a5.873,5.873,0,0,0,.876-.858,5.876,5.876,0,0,0,.9.835,3.946,3.946,0,0,0-.789-.1h-.1a3.786,3.786,0,0,0-.887.121Zm1.786-9.822a6.809,6.809,0,0,0-.979,1.06,7.062,7.062,0,0,0-1-1.037A6.815,6.815,0,0,0,95,16.1h-.167c-.156,0-.311.012-.467.023-.1,0-.265,0-.484.012a9.3,9.3,0,0,0,1.331-.507,9.05,9.05,0,0,0,2.339-1.619,8.529,8.529,0,0,0,2.3-3.722,8.444,8.444,0,0,0,2.3,3.722,9.05,9.05,0,0,0,2.339,1.619,8.174,8.174,0,0,0,.962.386A6.82,6.82,0,0,0,101.3,17.7ZM140.709,26.3a7.242,7.242,0,0,1-.115,1.164c-.04.225-.092.449-.15.668a8.374,8.374,0,0,1-5.565,5.888,9.351,9.351,0,0,1-3.134.49,9.2,9.2,0,0,1-5.577-1.982l-.3-.236h-.006v-.012a25.067,25.067,0,0,1-5.888-7.04,18.677,18.677,0,0,0-7.985-7.835,14.879,14.879,0,0,0-2.627-.979,8.957,8.957,0,0,0,1.031-.173l.207-.052a20,20,0,0,0,6.809-3.145c4.407-3.094,7.892-2.178,8.958-1.774a3.347,3.347,0,0,0-2.754.939,3.614,3.614,0,0,0-.726,3.923,3.8,3.8,0,0,0,2.183,2.224,4.411,4.411,0,0,0,2.155.242,8.609,8.609,0,0,0-2.028,4.136,6.417,6.417,0,0,0-.109,1.1,7.071,7.071,0,0,0,1.457,4.355,6.923,6.923,0,0,0,5.352,2.955,6.061,6.061,0,0,0,1.463-.161,5.989,5.989,0,0,0,4.493-4.747,4.683,4.683,0,0,0,.081-.847,5.029,5.029,0,0,0-.87-2.909h2.587a7.188,7.188,0,0,1,1.054,3.791Z" transform="translate(0 0.001)" fill="#e1b476"/></g></svg>