<svg xmlns="http://www.w3.org/2000/svg" xmlns:xlink="http://www.w3.org/1999/xlink" width="207" height="414" viewBox="0 0 207 414"><defs><clipPath id="a"><rect width="414" height="207" transform="translate(0.5 414.5) rotate(-90)" fill="#fff"/></clipPath></defs><g transform="translate(-0.5 -0.5)" clip-path="url(#a)"><path d="M121.623,207.862l10.759,3.006-4.041,1.5a17.763,17.763,0,0,0-7.84,5.424,47.2,47.2,0,0,0-4.375,7.028,22.257,22.257,0,0,1-5.851,7.228,13.854,13.854,0,0,1-6.432,2.674c-1.015.178-2,.308-2.983.491.759.65,1.549,1.256,2.339,1.919a13.867,13.867,0,0,1,4.236,5.537,11.772,11.772,0,0,1,.547,1.65,23.79,23.79,0,0,1,.531,6.022c-.019,2.1-.128,4.2-.05,6.28.2,5.182,1.574,8.858,4.755,12.052l2.995,3-10.738-3-3.862-3.237A17.489,17.489,0,0,1,95.031,252.9c-.223-2.124-.221-4.252-.326-6.382a21.056,21.056,0,0,0-1.022-6.154,11.828,11.828,0,0,0-.775-1.711,17.4,17.4,0,0,0-5.544-5.889c-1.011-.72-2.02-1.385-2.993-2.094,1.2-.126,2.4-.2,3.637-.317a17.318,17.318,0,0,0,7.741-2.322,20.457,20.457,0,0,0,6.745-6.988,40.819,40.819,0,0,1,4.947-6.874,19.543,19.543,0,0,1,9.3-5.03l4.874-1.274ZM.5.717V8.156l.1-.217c.078.17.154.339.232.509a22.429,22.429,0,0,0,6.825,8.876,18.962,18.962,0,0,0,2.376,1.569,36.82,36.82,0,0,0,8.847,3.252c2.977.77,6,1.413,8.934,2.322,4.446,1.376,8.1,3.206,11.045,6.189A31.229,31.229,0,0,0,13.535,44.414H.5v5H10.8A31.706,31.706,0,0,0,9.269,53.8,31.175,31.175,0,1,0,69.487,69.969a31.67,31.67,0,0,0,.866-4.563L88.582,75.949a31.208,31.208,0,1,0,43.6,43.677l10.525,18.26A31.213,31.213,0,0,0,116.109,177a31.167,31.167,0,0,0,38.177,22.082,31.491,31.491,0,0,0,4.379-1.531v21.084a31.62,31.62,0,0,0-4.379-1.53A31.223,31.223,0,1,0,142.707,278.3l-10.525,18.26a31.525,31.525,0,0,0-3.029-3.517,31.2,31.2,0,1,0-40.571,47.194L70.353,350.776a31.179,31.179,0,1,0-61.087,11.6,31.625,31.625,0,0,0,1.528,4.386H.5v5.005H13.537a31.238,31.238,0,0,0,24.17,13.714,23.442,23.442,0,0,1-6,3.946c-3.622,1.663-7.617,2.48-11.454,3.482-4.857,1.27-9.246,2.831-13.246,5.948A22.01,22.01,0,0,0,.5,407.061V414.5a22.017,22.017,0,0,1,6.508-8.208c4-3.115,8.389-4.678,13.246-5.946,3.839-1,7.832-1.819,11.454-3.482a24.7,24.7,0,0,0,10.069-8.591l2.183-3.091a31.369,31.369,0,0,0,6.681-1.77l3.342,1.928c5.811,3.354,11.341,3.483,17.8,2.007,3-.685,5.935-1.639,8.9-2.465a36.589,36.589,0,0,1,9.286-1.616,18.736,18.736,0,0,1,2.84.17,22.4,22.4,0,0,1,10.342,4.269c.152.109.3.216.456.324-.02-.185-.035-.371-.052-.556a22.482,22.482,0,0,1,1.48-11.106c1.909-4.7,4.93-8.254,8.5-11.785,2.823-2.789,5.874-5.5,8.181-8.752a24.743,24.743,0,0,0,4.431-12.484l.35-3.769a31.167,31.167,0,0,0,4.9-4.881l3.856,0c6.708-.006,11.56-2.665,16.421-7.18,2.254-2.1,4.32-4.391,6.475-6.591a36.747,36.747,0,0,1,7.235-6.05,19.094,19.094,0,0,1,2.546-1.276,22.37,22.37,0,0,1,11.086-1.483c.187.016.371.033.556.053-.109-.153-.215-.305-.324-.457a22.483,22.483,0,0,1-4.261-10.36c-.693-5.028.149-9.617,1.482-14.465,1.052-3.83,2.343-7.7,2.717-11.678a24.757,24.757,0,0,0-2.394-13.03l-1.58-3.439a32.085,32.085,0,0,0,1.118-3.389,31.721,31.721,0,0,0,.694-3.291l3.338-1.935c5.805-3.365,8.682-8.1,10.637-14.441.907-2.945,1.552-5.967,2.318-8.951a36.836,36.836,0,0,1,3.246-8.863,19.252,19.252,0,0,1,1.567-2.378,22.374,22.374,0,0,1,8.86-6.837c.17-.078.339-.154.508-.233-.169-.076-.338-.154-.508-.232a22.414,22.414,0,0,1-8.86-6.837c-3.11-4.006-4.67-8.4-5.937-13.269-1-3.845-1.817-7.845-3.477-11.473a24.706,24.706,0,0,0-8.578-10.087l-3.086-2.189a31.283,31.283,0,0,0-1.766-6.693l1.925-3.348c3.348-5.824,3.476-11.36,2-17.836-.684-3-1.636-5.944-2.459-8.913a36.765,36.765,0,0,1-1.612-9.3,18.882,18.882,0,0,1,.169-2.843,22.456,22.456,0,0,1,4.262-10.361c.106-.152.215-.3.323-.456-.184.019-.371.037-.555.052a22.372,22.372,0,0,1-11.087-1.483c-4.694-1.913-8.24-4.939-11.764-8.517-2.784-2.828-5.488-5.885-8.736-8.2A24.65,24.65,0,0,0,135.3,82l-3.763-.35a31.472,31.472,0,0,0-4.871-4.913l-.005-3.863c-.006-6.719-2.66-11.58-7.167-16.449-2.092-2.259-4.384-4.328-6.58-6.487a36.835,36.835,0,0,1-6.039-7.248,19.12,19.12,0,0,1-1.274-2.55,22.48,22.48,0,0,1-1.48-11.106c.017-.185.035-.372.052-.556l-.456.324a22.394,22.394,0,0,1-10.342,4.269c-5.019.694-9.6-.15-14.439-1.485-3.824-1.054-7.691-2.348-11.658-2.722a24.647,24.647,0,0,0-13.009,2.4l-3.433,1.583a31.289,31.289,0,0,0-6.671-1.815l-1.931-3.341c-3.359-5.815-8.083-8.7-14.418-10.656-2.94-.909-5.957-1.552-8.934-2.322a36.732,36.732,0,0,1-8.847-3.252,18.719,18.719,0,0,1-2.376-1.57A22.429,22.429,0,0,1,.832,1.011C.754.841.675.672.6.5L.5.72Zm0,22.269.234-.235,6.988,7-6.988,7L.5,36.516Zm0,34.181C4.844,67.341,2.691,72.456.5,72.513ZM.5,84.9l2.548-9.15,1.5,4.048a17.811,17.811,0,0,0,5.412,7.854,47.373,47.373,0,0,0,7.016,4.382,22.238,22.238,0,0,1,7.215,5.858,13.9,13.9,0,0,1,2.669,6.443c.178,1.018.306,2.007.491,2.991.649-.76,1.254-1.552,1.916-2.345a13.853,13.853,0,0,1,5.527-4.243,11.252,11.252,0,0,1,1.647-.548,23.587,23.587,0,0,1,6.011-.533c2.092.02,4.19.126,6.271.048,5.173-.2,8.843-1.576,12.031-4.763l3-3L60.753,102.7l-3.233,3.87A17.437,17.437,0,0,1,45,113.161c-2.118.224-4.245.222-6.369.324a20.953,20.953,0,0,0-6.143,1.024,11.443,11.443,0,0,0-1.708.776,17.375,17.375,0,0,0-5.879,5.554c-.72,1.013-1.384,2.024-2.092,3-.126-1.2-.2-2.4-.315-3.644a17.425,17.425,0,0,0-2.318-7.754,20.455,20.455,0,0,0-6.975-6.758,40.786,40.786,0,0,1-6.862-4.956,19.588,19.588,0,0,1-5.021-9.32L.5,88.264V84.9Zm0,19.793v10.16a18.343,18.343,0,0,0,2.077,2.461,37.506,37.506,0,0,0,6.443,4.706,13.5,13.5,0,0,1,4.64,4.407,10.851,10.851,0,0,1,1.408,4.871,34.35,34.35,0,0,0,1.05,7.189c.048.155.108.326.184.511a20.912,20.912,0,0,1-4.88,1.857l-1.432.367C8.347,133.48,5.144,127.563.5,123.326v4.941c1.178.346,2.168,3.4,0,9.148v8.414H16.927l28.844,16.682,16.653,28.9V224.77L45.771,253.665,16.927,270.349H.5v8.41c2.172,5.759,1.18,8.809,0,9.152v4.943c4.644-4.236,7.847-10.154,9.49-17.9l1.43.368a20.742,20.742,0,0,1,4.88,1.856c-.074.185-.137.357-.182.511a34.331,34.331,0,0,0-1.05,7.189,10.852,10.852,0,0,1-1.408,4.871,5.845,5.845,0,0,1-.551.768,14.123,14.123,0,0,1-3.168,2.561c-1.58,1.019-3.192,1.954-4.715,3.065A20.812,20.812,0,0,0,.5,300.791v12.065l.677-3.874A14.4,14.4,0,0,1,7.4,299.1c1.421-1.035,2.94-1.911,4.414-2.863a17.322,17.322,0,0,0,3.965-3.269,9.881,9.881,0,0,0,.9-1.259,14.351,14.351,0,0,0,1.912-6.393,33.932,33.932,0,0,1,.766-5.874,33.617,33.617,0,0,1,3.6,4.7,14.332,14.332,0,0,0,4.846,4.578,16.825,16.825,0,0,0,7.76,1.946,33.561,33.561,0,0,1,6.94.7,16.076,16.076,0,0,1,7.419,4.581l2.917,2.96-1.426-3.906a14.433,14.433,0,0,1,.462-11.674c.714-1.608,1.593-3.126,2.394-4.691a17.381,17.381,0,0,0,1.8-4.817,9.67,9.67,0,0,0,.152-1.541,14.34,14.34,0,0,0-1.536-6.493,33.607,33.607,0,0,1-2.268-5.472,33.33,33.33,0,0,1,5.46,2.272,14.293,14.293,0,0,0,6.482,1.539,16.85,16.85,0,0,0,7.693-2.2,33.408,33.408,0,0,1,6.36-2.865,16.07,16.07,0,0,1,8.713.25l4,1.1-3.186-2.67a14.4,14.4,0,0,1-5.425-10.341c-.185-1.749-.182-3.506-.267-5.26a17.405,17.405,0,0,0-.842-5.074,9.8,9.8,0,0,0-.638-1.411,14.329,14.329,0,0,0-4.572-4.854,33.725,33.725,0,0,1-4.694-3.6,33.464,33.464,0,0,1,5.863-.767,14.3,14.3,0,0,0,6.382-1.915,16.864,16.864,0,0,0,5.562-5.761A33.692,33.692,0,0,1,93.39,213.1a16.128,16.128,0,0,1,7.669-4.148l4.019-1.05-4.09-.717a14.374,14.374,0,0,1-9.861-6.237c-1.033-1.424-1.907-2.946-2.858-4.424a17.29,17.29,0,0,0-3.262-3.971,9.6,9.6,0,0,0-1.256-.9,14.271,14.271,0,0,0-6.382-1.915,33.588,33.588,0,0,1-5.863-.768,33.73,33.73,0,0,1,4.694-3.6,14.34,14.34,0,0,0,4.572-4.854,16.876,16.876,0,0,0,1.94-7.774,33.806,33.806,0,0,1,.7-6.949,16.122,16.122,0,0,1,4.572-7.433l2.956-2.921-3.9,1.428A14.363,14.363,0,0,1,75.39,156.4c-1.606-.715-3.12-1.6-4.683-2.4a17.279,17.279,0,0,0-4.807-1.8,9.445,9.445,0,0,0-1.538-.15,14.277,14.277,0,0,0-6.484,1.539,33.852,33.852,0,0,1-5.46,2.271,33.539,33.539,0,0,1,2.268-5.469,14.36,14.36,0,0,0,1.536-6.495,16.919,16.919,0,0,0-2.2-7.707,33.619,33.619,0,0,1-2.86-6.371,16.139,16.139,0,0,1,.25-8.726l1.1-4.011-2.665,3.189A14.38,14.38,0,0,1,39.523,125.7c-1.747.185-3.5.183-5.251.267a17.27,17.27,0,0,0-5.065.846,9.771,9.771,0,0,0-1.408.639,14.3,14.3,0,0,0-4.846,4.58,33.677,33.677,0,0,1-3.6,4.7,33.675,33.675,0,0,1-.766-5.873,14.35,14.35,0,0,0-1.912-6.393,16.855,16.855,0,0,0-5.751-5.572,33.667,33.667,0,0,1-5.657-4.085,16.149,16.149,0,0,1-4.14-7.682L.5,104.7Zm0,46.374a12.5,12.5,0,0,1,12.259,12.506,12.508,12.508,0,0,1-8.9,11.982L8.41,188.413,20.7,182.539a12.477,12.477,0,1,1,5.078,5.087l-5.861,12.312,12.836,4.554a12.508,12.508,0,1,1,0,7.2l-12.836,4.554,5.861,12.313a12.518,12.518,0,1,1-5.078,5.086L8.41,227.77,3.863,240.628a12.51,12.51,0,0,1,8.9,11.982A12.5,12.5,0,0,1,.5,265.116v-2.828a9.681,9.681,0,0,0,0-19.356v-7.665l5.074-14.353,14.335,6.849L13.073,213.4l14.971-5.311L13.073,202.78l6.836-14.361-14.335,6.85L.5,180.913v-7.665a9.681,9.681,0,0,0,0-19.356v-2.826Zm0,6.478a1.722,1.722,0,0,1,.391,3.313v2.1H2.982a1.723,1.723,0,1,1,0,1.237H.89v2.1A1.722,1.722,0,0,1,.5,169.6V157.544Zm0,32.74,3.288,9.3,9.507-4.541-4.533,9.524,9.928,3.523-9.928,3.522,4.533,9.526L3.787,216.6.5,225.9v-8.33l1.7-4.813,5.215,2.491-2.487-5.223,5.447-1.933-5.447-1.932,2.487-5.224L2.2,203.425.5,198.612v-8.328Zm0,15.185a2.634,2.634,0,0,1,0,5.247Zm0,41.113A1.722,1.722,0,0,1,.888,249.9v2.1H2.98a1.723,1.723,0,1,1,0,1.237H.89v2.1a1.725,1.725,0,0,1,1.1,1.607A1.721,1.721,0,0,1,.5,258.638V246.582Zm0,97.147c1.975.584,3.607,5.376,0,14.373Zm0,36.392,6.3,6.313L.5,392.74V380.121ZM177.356,170.6a23.512,23.512,0,0,1,3.938,6.011c1.66,3.628,2.476,7.63,3.477,11.473,1.267,4.865,2.825,9.261,5.937,13.269a22.383,22.383,0,0,0,8.86,6.837c.169.078.339.156.508.232-.169.079-.339.155-.508.233a22.419,22.419,0,0,0-8.86,6.837,19.4,19.4,0,0,0-1.567,2.378,36.829,36.829,0,0,0-3.244,8.863c-.768,2.984-1.411,6.006-2.318,8.951-1.373,4.457-3.2,8.115-6.178,11.065a31.307,31.307,0,0,0-13.732-25.366V194.806a31.319,31.319,0,0,0,13.691-24.212ZM121.234,342.97a23.476,23.476,0,0,1-3.227,6.422c-2.306,3.254-5.358,5.962-8.181,8.751-3.572,3.531-6.592,7.083-8.5,11.785a22.479,22.479,0,0,0-1.48,11.106c.017.185.035.372.052.556-.152-.108-.3-.217-.456-.324A22.4,22.4,0,0,0,89.1,377a18.868,18.868,0,0,0-2.841-.17,36.6,36.6,0,0,0-9.286,1.616c-2.962.824-5.9,1.778-8.9,2.463-4.537,1.036-8.617,1.282-12.656.173a31.308,31.308,0,0,0,15.064-24.6L93.455,343.2a31.193,31.193,0,0,0,27.777-.228Zm13.91-41.531,13.263-23.014a31.243,31.243,0,0,0,23.942-14.111,23.508,23.508,0,0,1,.411,7.176c-.374,3.974-1.663,7.848-2.717,11.678-1.333,4.847-2.175,9.436-1.482,14.465a22.461,22.461,0,0,0,4.261,10.36c.107.152.215.3.324.454l-.556-.052A22.348,22.348,0,0,0,161.5,309.88a19.063,19.063,0,0,0-2.544,1.274,36.8,36.8,0,0,0-7.235,6.05c-2.152,2.2-4.218,4.493-6.475,6.588-3.413,3.172-6.823,5.426-10.874,6.489a31.341,31.341,0,0,0,.768-28.846Zm-24.8,16.915C133.651,328.308,120.279,341.7,110.343,318.354ZM89.578,332.8l-.052-.052a24.955,24.955,0,0,1-6.13-25.151,23.356,23.356,0,0,1,17.916,2.654,44.278,44.278,0,0,0-11.735,22.547Zm12.675-23.49a23.457,23.457,0,0,1-2.65-17.947,24.848,24.848,0,0,1,25.108,6.141l.052.052A44.163,44.163,0,0,0,102.253,309.306Zm27.653-4.2a24.91,24.91,0,0,1-32.79,32.844,36.222,36.222,0,0,1,32.79-32.842ZM40.565,358.711C55.784,379.006,37.516,383.91,40.565,358.711Zm-25.192,2.106-.02-.072A24.944,24.944,0,0,1,22.6,335.894a23.4,23.4,0,0,1,14.19,11.272,44.165,44.165,0,0,0-21.416,13.649Zm22.7-13.993a23.45,23.45,0,0,1,6.664-16.869,24.891,24.891,0,0,1,18.678,17.893l.02.074a44.112,44.112,0,0,0-25.359-1.1Zm26.045,10.213a24.878,24.878,0,0,1-44.79,12.019,36.154,36.154,0,0,1,44.79-12.021ZM56.4,35.718a23.308,23.308,0,0,1,7.163-.409c3.967.374,7.834,1.667,11.657,2.719,4.839,1.335,9.42,2.18,14.439,1.485A22.4,22.4,0,0,0,100,35.246l.455-.324c-.017.185-.037.372-.052.556a22.48,22.48,0,0,0,1.48,11.106,18.876,18.876,0,0,0,1.274,2.55,36.833,36.833,0,0,0,6.039,7.248c2.194,2.156,4.486,4.226,6.58,6.487,3.166,3.42,5.414,6.832,6.477,10.891a31.2,31.2,0,0,0-28.8-.77L70.49,59.7A31.32,31.32,0,0,0,56.4,35.72ZM40.565,57.476C37.516,32.277,55.784,37.181,40.565,57.476Zm22.868,10.8-.017.07A24.9,24.9,0,0,1,44.738,86.234a23.458,23.458,0,0,1-6.664-16.871,44.089,44.089,0,0,0,25.359-1.093Zm-26.646.748A23.392,23.392,0,0,1,22.6,80.29a24.953,24.953,0,0,1-7.246-24.851l.022-.074A44.16,44.16,0,0,0,36.789,69.017ZM19.329,47.131A24.877,24.877,0,0,1,64.117,59.157,36.157,36.157,0,0,1,19.329,47.131ZM134.916,86.925a23.423,23.423,0,0,1,6.411,3.235c3.248,2.311,5.952,5.367,8.738,8.2,3.524,3.58,7.07,6.606,11.764,8.519a22.35,22.35,0,0,0,11.087,1.483l.555-.052c-.108.152-.217.3-.323.454a22.472,22.472,0,0,0-4.262,10.361,18.923,18.923,0,0,0-.169,2.845,36.854,36.854,0,0,0,1.612,9.3c.825,2.967,1.775,5.908,2.461,8.913,1.035,4.545,1.278,8.63.174,12.675a31.244,31.244,0,0,0-24.554-15.091l-13.264-23.012a31.361,31.361,0,0,0-.228-27.825Zm-24.573,10.91C120.279,74.486,133.651,87.882,110.343,97.836Zm14.417,20.8-.049.052A24.85,24.85,0,0,1,99.6,124.828a23.468,23.468,0,0,1,2.65-17.947A44.147,44.147,0,0,0,124.76,118.637Zm-23.449-12.7A23.349,23.349,0,0,1,83.4,108.594a24.955,24.955,0,0,1,6.128-25.151l.054-.052A44.281,44.281,0,0,0,101.311,105.94Zm-4.195-27.7A24.91,24.91,0,0,1,129.9,111.085,36.222,36.222,0,0,1,97.118,78.238Zm53.514,89.5C170.889,152.494,175.782,170.792,150.63,167.737Zm2.1,25.239-.069.019a24.847,24.847,0,0,1-24.808-7.258,23.422,23.422,0,0,1,11.254-14.215,44.271,44.271,0,0,0,13.625,21.454Zm-13.968-22.743a23.367,23.367,0,0,1-16.84-6.674,24.892,24.892,0,0,1,17.862-18.71l.074-.02a44.313,44.313,0,0,0-1.094,25.4Zm10.195-26.088a24.943,24.943,0,0,1,12,44.868,36.291,36.291,0,0,1-12-44.868Zm1.673,104.309C175.787,245.4,170.891,263.7,150.632,248.454Zm-10.777,22.908a44.314,44.314,0,0,1-1.091-25.4,23.371,23.371,0,0,0-16.84,6.674,24.9,24.9,0,0,0,17.862,18.712l.071.018Zm-.746-26.691a44.261,44.261,0,0,1,13.628-21.453l-.072-.022a24.848,24.848,0,0,0-24.808,7.259,23.424,23.424,0,0,0,11.254,14.216Zm21.85-17.488a24.943,24.943,0,0,1-12,44.866,36.294,36.294,0,0,1,12-44.866Zm-117.278-68.3v0Zm20.832,62.257v.006h0v0Zm-20.83,36.144v0Zm-4.843-33.2C25.414,210.914,20.045,223.9,38.84,224.09ZM16.25,246.719C16.057,227.892,3.1,233.27,16.25,246.719Zm0-77.264C3.1,182.9,16.057,188.282,16.25,169.455Zm22.59,22.629C20.045,192.278,25.414,205.262,38.84,192.084Zm-2.875,51.755a1.719,1.719,0,0,1-2.786-1.915l-1.48-1.483-1.48,1.483a1.718,1.718,0,1,1-.874-.876l1.48-1.483-1.48-1.482a1.723,1.723,0,1,1,.874-.876l1.48,1.482,1.48-1.482a1.716,1.716,0,1,1,.872.876l-1.48,1.482,1.48,1.483a1.721,1.721,0,0,1,1.914,2.791Zm2.567,2.572a9.672,9.672,0,1,1,0-13.691A9.653,9.653,0,0,1,38.532,246.411Zm-2.567-74.076a1.721,1.721,0,0,1-1.914,2.791l-1.48,1.483,1.48,1.482a1.723,1.723,0,1,1-.872.874l-1.48-1.482-1.48,1.482a1.718,1.718,0,1,1-.874-.874l1.48-1.482-1.48-1.483a1.723,1.723,0,1,1,.874-.876l1.48,1.483,1.48-1.483a1.719,1.719,0,0,1,2.786-1.915Zm2.567-2.572a9.672,9.672,0,1,1-13.667,0A9.694,9.694,0,0,1,38.532,169.763Zm12.215,38.325a1.718,1.718,0,0,1-3.322.62H45.333v2.1a1.719,1.719,0,1,1-1.237,0v-2.1H42a1.724,1.724,0,1,1,0-1.237H44.1v-2.1a1.719,1.719,0,1,1,1.237,0v2.1h2.092a1.718,1.718,0,0,1,3.322.617Zm3.63,0a9.663,9.663,0,1,1-9.663-9.68A9.673,9.673,0,0,1,54.377,208.088Zm13.641,20.641c.124.158.239.3.349.415a34.335,34.335,0,0,0,5.69,4.506,10.851,10.851,0,0,1,3.509,3.657,6.151,6.151,0,0,1,.388.863,14.2,14.2,0,0,1,.629,4.03c.091,1.88.093,3.745.291,5.621a20.4,20.4,0,0,0,1.964,7.078,18.153,18.153,0,0,0-3.24.579,37.469,37.469,0,0,0-7.289,3.236,13.491,13.491,0,0,1-6.13,1.822,10.785,10.785,0,0,1-4.915-1.215,34.2,34.2,0,0,0-6.74-2.683c-.156-.034-.336-.067-.532-.1a20.9,20.9,0,0,1,.835-5.163l.4-1.426c7.6,2.474,14.383,2.63,20.418.652l.069-.122c-1.306-6.223-4.833-12.032-10.772-17.386l1.033-1.059a20.8,20.8,0,0,1,4.045-3.306ZM48.64,259.895c.028.2.058.378.1.535a34.247,34.247,0,0,0,2.68,6.751,10.875,10.875,0,0,1,1.213,4.924,6.224,6.224,0,0,1-.093.941,14.127,14.127,0,0,1-1.467,3.807c-.859,1.674-1.788,3.289-2.552,5.015a20.422,20.422,0,0,0-1.832,7.113,18.045,18.045,0,0,0-3.095-1.122,37.63,37.63,0,0,0-7.927-.85,13.446,13.446,0,0,1-6.217-1.493A10.808,10.808,0,0,1,25.8,282a34.1,34.1,0,0,0-4.5-5.7c-.117-.111-.256-.226-.412-.35a20.878,20.878,0,0,1,3.3-4.052l1.057-1.035c5.347,5.948,11.143,9.482,17.358,10.791l.122-.07c1.977-6.043,1.819-12.841-.651-20.453l1.424-.4a20.7,20.7,0,0,1,5.154-.837ZM67.024,217.82l.367,1.435a20.867,20.867,0,0,0,1.853,4.889c.184-.074.356-.137.508-.185a34.178,34.178,0,0,1,7.176-1.052,10.814,10.814,0,0,0,4.863-1.411,13.474,13.474,0,0,0,4.4-4.647,37.6,37.6,0,0,1,4.7-6.455,18.244,18.244,0,0,1,2.517-2.123,20.308,20.308,0,0,1-5.234-5.146c-1.109-1.526-2.04-3.141-3.06-4.724a14.193,14.193,0,0,0-2.556-3.176,5.965,5.965,0,0,0-.766-.55,10.8,10.8,0,0,0-4.863-1.41,34.137,34.137,0,0,1-7.176-1.052c-.152-.048-.323-.111-.51-.185a20.859,20.859,0,0,0-1.853,4.889l-.367,1.432c7.816,1.663,13.769,4.926,18.007,9.663v.139c-4.238,4.737-10.19,8-18.007,9.663Zm-6.159,25.312C74.739,245.106,69.509,254.182,60.866,243.132Zm5.212-17.382c-.623.353-1.181.679-1.569.9v-1.322l.662-1.146c.223.389.545.95.909,1.565ZM47.3,255.2l1.144-.661c0,.45,0,1.1.007,1.811-.714-.009-1.361-.007-1.81-.007l.66-1.145ZM35.257,268.788C46.285,277.449,37.228,282.685,35.257,268.788ZM17.485,272.44h1.322c-.223.387-.549.948-.9,1.572-.614-.366-1.176-.687-1.565-.911Zm3.392-132.215c.156-.124.3-.241.414-.35a34.405,34.405,0,0,0,4.5-5.7,10.819,10.819,0,0,1,3.65-3.512,5.74,5.74,0,0,1,.859-.39,14.136,14.136,0,0,1,4.023-.63c1.877-.093,3.739-.093,5.612-.291A20.31,20.31,0,0,0,47,127.384a18.008,18.008,0,0,0,.577,3.246,37.614,37.614,0,0,0,3.231,7.3,13.528,13.528,0,0,1,1.819,6.141A10.876,10.876,0,0,1,51.413,149a34.268,34.268,0,0,0-2.678,6.752c-.037.156-.067.334-.1.532a20.788,20.788,0,0,1-5.154-.837l-1.424-.4c2.47-7.612,2.626-14.408.649-20.451l-.121-.072c-6.213,1.309-12.011,4.841-17.358,10.791l-1.057-1.037a20.827,20.827,0,0,1-3.3-4.052Zm-3.392,3.513-1.144-.661c.388-.224.948-.545,1.565-.91.349.623.675,1.184.9,1.571H17.485Zm34.5,15.9a5.406,5.406,0,0,0,.534-.1,34.088,34.088,0,0,0,6.74-2.683,10.8,10.8,0,0,1,4.915-1.215,6.178,6.178,0,0,1,.94.094,14,14,0,0,1,3.8,1.469c1.671.861,3.285,1.789,5.006,2.557a20.238,20.238,0,0,0,7.1,1.834,18.091,18.091,0,0,0-1.12,3.1,37.686,37.686,0,0,0-.849,7.943,13.53,13.53,0,0,1-1.491,6.231,10.806,10.806,0,0,1-3.509,3.656,34.43,34.43,0,0,0-5.69,4.506c-.108.118-.226.257-.349.413a20.806,20.806,0,0,1-4.045-3.306l-1.035-1.059c5.937-5.356,9.466-11.162,10.772-17.386l-.069-.124c-6.033-1.978-12.818-1.821-20.418.652l-.4-1.426a20.882,20.882,0,0,1-.835-5.163ZM35.255,147.39C37.225,133.491,46.285,138.732,35.255,147.39ZM47.3,160.983l-.662-1.145c.447,0,1.094,0,1.81-.005-.009.715-.007,1.363-.007,1.811Zm13.567,12.063C69.509,162,74.739,171.07,60.866,173.046Zm3.646,17.8v-1.324c.389.224.946.55,1.569.9-.365.615-.686,1.178-.909,1.567Zm5.729,17.24C83.241,202.851,83.241,213.329,70.24,208.09Zm35.24,60.585-4.857-1.339a19.5,19.5,0,0,0-10.566-.3,40.722,40.722,0,0,0-7.715,3.476,20.392,20.392,0,0,1-9.329,2.671,17.321,17.321,0,0,1-7.862-1.867c-1.131-.517-2.209-1.059-3.307-1.548.488,1.1,1.029,2.183,1.545,3.313a17.409,17.409,0,0,1,1.862,7.878,11.951,11.951,0,0,1-.182,1.867,20.972,20.972,0,0,1-2.187,5.841c-.972,1.9-2.038,3.739-2.9,5.689a17.5,17.5,0,0,0-.562,14.159l1.729,4.739-3.537-3.592a19.524,19.524,0,0,0-9-5.554,40.524,40.524,0,0,0-8.415-.854,20.394,20.394,0,0,1-9.411-2.357,17.352,17.352,0,0,1-5.879-5.556c-.72-1.013-1.384-2.024-2.092-3-.126,1.2-.2,2.4-.315,3.644a17.423,17.423,0,0,1-2.318,7.754,11.8,11.8,0,0,1-1.091,1.526,21,21,0,0,1-4.809,3.963c-1.788,1.154-3.63,2.217-5.354,3.474a17.475,17.475,0,0,0-7.554,11.98L.5,329.651l2.773,10.815,1.1-4.1c1.17-4.359,3.659-7.391,8.042-10.152,1.762-1.109,3.633-2.067,5.453-3.1a23.719,23.719,0,0,0,4.941-3.471,11.749,11.749,0,0,0,1.152-1.3,13.9,13.9,0,0,0,2.669-6.443c.178-1.018.306-2.007.49-2.989.651.76,1.256,1.55,1.918,2.343a13.853,13.853,0,0,0,5.527,4.243,22.162,22.162,0,0,0,9.173,1.461,47.3,47.3,0,0,1,8.264.283,17.767,17.767,0,0,1,8.608,4.089l3.314,2.756-2.78-10.836,7.8,7.975-1.092-4.1c-1.161-4.36-.521-8.234,1.9-12.819.972-1.843,2.114-3.611,3.177-5.415a23.767,23.767,0,0,0,2.545-5.482,11.934,11.934,0,0,0,.349-1.7,13.908,13.908,0,0,0-.9-6.917c-.354-.97-.736-1.892-1.068-2.835.942.332,1.862.715,2.83,1.069a13.836,13.836,0,0,0,6.905.907,22.226,22.226,0,0,0,8.674-3.33,47.526,47.526,0,0,1,7.3-3.894,17.746,17.746,0,0,1,9.5-.769l4.247.728-7.817-7.993ZM66.226,303.206a2.718,2.718,0,1,1,0-3.847A2.715,2.715,0,0,1,66.226,303.206ZM94.7,274.679a2.718,2.718,0,1,0-3.839,0A2.724,2.724,0,0,0,94.7,274.679Zm-10.332,4.3a2.718,2.718,0,1,1,0-3.847,2.712,2.712,0,0,1,0,3.847ZM70.522,292.859a2.718,2.718,0,1,1,0-3.848A2.715,2.715,0,0,1,70.522,292.859ZM9.913,323.495a2.72,2.72,0,1,1,1.918-3.331,2.715,2.715,0,0,1-1.918,3.331Zm38.9-10.441a2.719,2.719,0,1,1,1.923-3.331,2.713,2.713,0,0,1-1.923,3.331Zm-11.1-1.446a2.72,2.72,0,1,1,1.92-3.332A2.715,2.715,0,0,1,37.718,311.608ZM18.8,316.686a2.72,2.72,0,1,1,1.92-3.332A2.715,2.715,0,0,1,18.8,316.686ZM49.525,103.314a2.719,2.719,0,1,1-3.325,1.921,2.722,2.722,0,0,1,3.325-1.921Zm-38.9-10.441A2.72,2.72,0,1,1,7.3,94.8,2.722,2.722,0,0,1,10.625,92.873Zm8.886,6.811a2.72,2.72,0,1,1-3.325,1.924,2.722,2.722,0,0,1,3.325-1.924Zm18.918,5.078a2.72,2.72,0,1,1-3.327,1.922,2.72,2.72,0,0,1,3.327-1.922ZM60.749,102.7l-1.335,4.865a19.586,19.586,0,0,0-.3,10.585,40.675,40.675,0,0,0,3.47,7.728,20.506,20.506,0,0,1,2.669,9.345A17.442,17.442,0,0,1,63.39,143.1c-.516,1.133-1.057,2.213-1.545,3.313,1.1-.489,2.177-1.03,3.307-1.548A17.354,17.354,0,0,1,73.014,143a11.673,11.673,0,0,1,1.866.183,20.954,20.954,0,0,1,5.831,2.189c1.892.973,3.732,2.043,5.679,2.908a17.413,17.413,0,0,0,14.133.561l4.731-1.733-3.585,3.546a19.577,19.577,0,0,0-5.544,9.015,40.742,40.742,0,0,0-.853,8.43,20.489,20.489,0,0,1-2.354,9.43,17.376,17.376,0,0,1-5.544,5.887c-1.011.722-2.02,1.387-2.993,2.1,1.2.126,2.4.2,3.637.316a17.342,17.342,0,0,1,7.74,2.321,11.6,11.6,0,0,1,1.523,1.094,21.007,21.007,0,0,1,3.956,4.817c1.153,1.793,2.214,3.637,3.466,5.365a17.445,17.445,0,0,0,11.959,7.567l4.961.87,10.8-2.779-4.093-1.1c-4.351-1.174-7.378-3.667-10.134-8.056-1.109-1.765-2.064-3.637-3.1-5.463a23.8,23.8,0,0,0-3.465-4.95,11.625,11.625,0,0,0-1.3-1.154,13.863,13.863,0,0,0-6.432-2.674c-1.016-.178-2-.308-2.984-.491.76-.652,1.55-1.259,2.34-1.919a13.881,13.881,0,0,0,4.235-5.537,22.318,22.318,0,0,0,1.459-9.189,47.455,47.455,0,0,1,.282-8.278,17.842,17.842,0,0,1,4.082-8.624l2.751-3.319L105.25,147.1l7.962-7.812-4.1,1.1c-4.353,1.163-8.22.522-12.8-1.9-1.84-.974-3.6-2.117-5.406-3.182a23.7,23.7,0,0,0-5.473-2.548,11.587,11.587,0,0,0-1.7-.352,13.848,13.848,0,0,0-6.905.906c-.968.355-1.888.737-2.83,1.07.332-.946.714-1.865,1.068-2.835a13.906,13.906,0,0,0,.9-6.917,22.247,22.247,0,0,0-3.325-8.687,47.26,47.26,0,0,1-3.887-7.308A17.841,17.841,0,0,1,68,99.12l.727-4.254-7.979,7.83Zm34.473,39.323a2.717,2.717,0,1,1-3.841,0A2.724,2.724,0,0,1,95.222,142.021ZM66.744,113.494a2.718,2.718,0,1,1-3.841,0A2.722,2.722,0,0,1,66.744,113.494Zm4.3,10.349a2.718,2.718,0,1,1-3.841,0A2.724,2.724,0,0,1,71.041,123.843ZM84.89,137.717a2.717,2.717,0,1,1-3.839,0,2.72,2.72,0,0,1,3.839,0Zm30.585,60.715a2.716,2.716,0,1,1-3.327-1.924A2.72,2.72,0,0,1,115.475,198.432Zm-10.423-38.968a2.716,2.716,0,1,1-3.326-1.924A2.721,2.721,0,0,1,105.052,159.464Zm-1.445,11.115a2.716,2.716,0,1,1-3.327-1.924A2.72,2.72,0,0,1,103.607,170.579Zm5.069,18.951a2.717,2.717,0,1,1-3.327-1.922A2.72,2.72,0,0,1,108.676,189.53Zm-3.817,67.9a2.716,2.716,0,1,0-3.324,1.921,2.722,2.722,0,0,0,3.324-1.921Zm10.423-38.971a2.716,2.716,0,1,0-3.327,1.924A2.72,2.72,0,0,0,115.282,218.459Zm-6.8,8.9a2.716,2.716,0,1,0-3.327,1.924,2.721,2.721,0,0,0,3.327-1.924Zm-5.069,18.954a2.717,2.717,0,1,0-3.327,1.922A2.721,2.721,0,0,0,103.414,246.315ZM157.708,291.6l2.559,9.562-9.546,2.563-2.559-9.56,9.546-2.563Zm-26.984-7.837C117.35,265.8,108.511,281.138,130.724,283.759ZM94.936,359.265l-2.559,9.563-9.546-2.563L85.39,356.7Zm-19.457-20.3C72.862,316.712,57.55,325.566,75.479,338.964ZM83.63,50.374l9.546-2.561,2.558,9.561-9.546,2.563ZM75.807,77.406C57.878,90.8,73.189,99.657,75.807,77.406Zm75.376,35.853,9.546,2.561-2.559,9.562-9.546-2.563Zm-20.268,19.49C108.7,135.371,117.541,150.71,130.915,132.749Zm47.383,68.8,6.987,7-6.987,7-6.988-7Zm-27.282,6.73C130.47,199.425,130.47,217.138,151.016,208.281Z" fill="#fff" fill-rule="evenodd"/></g></svg>