<svg xmlns="http://www.w3.org/2000/svg" xmlns:xlink="http://www.w3.org/1999/xlink" width="207" height="414" viewBox="0 0 207 414"><defs><clipPath id="a"><rect width="414" height="207" transform="translate(207) rotate(90)" fill="#fff"/></clipPath></defs><g clip-path="url(#a)"><path d="M85.877,206.638l-10.759-3.006,4.041-1.5A17.765,17.765,0,0,0,87,196.71a47.272,47.272,0,0,0,4.375-7.028,22.249,22.249,0,0,1,5.85-7.228,13.859,13.859,0,0,1,6.432-2.674c1.015-.178,2-.308,2.983-.491-.759-.65-1.549-1.256-2.339-1.919a13.867,13.867,0,0,1-4.236-5.537,11.655,11.655,0,0,1-.547-1.65,23.813,23.813,0,0,1-.532-6.022c.02-2.1.128-4.2.05-6.28-.2-5.182-1.573-8.858-4.755-12.052l-2.995-3,10.738,3,3.862,3.237a17.49,17.49,0,0,1,6.582,12.543c.224,2.124.221,4.252.326,6.382a21.047,21.047,0,0,0,1.022,6.154,11.845,11.845,0,0,0,.774,1.711,17.405,17.405,0,0,0,5.545,5.889c1.011.72,2.02,1.385,2.992,2.094-1.195.126-2.4.2-3.637.317a17.314,17.314,0,0,0-7.74,2.322,20.456,20.456,0,0,0-6.745,6.988,40.819,40.819,0,0,1-4.947,6.874,19.542,19.542,0,0,1-9.3,5.03l-4.874,1.274ZM207,413.783v-7.439l-.1.217c-.079-.169-.154-.339-.233-.509a22.42,22.42,0,0,0-6.824-8.875,18.927,18.927,0,0,0-2.377-1.57,36.814,36.814,0,0,0-8.847-3.252c-2.977-.769-6-1.413-8.934-2.321-4.446-1.377-8.1-3.207-11.045-6.189a31.233,31.233,0,0,0,25.322-13.759H207v-5H196.7a31.636,31.636,0,0,0,1.528-4.387,31.175,31.175,0,1,0-60.218-16.164,31.554,31.554,0,0,0-.866,4.563l-18.229-10.543a31.208,31.208,0,1,0-43.6-43.677l-10.525-18.26a31.213,31.213,0,0,0,26.6-39.112,31.161,31.161,0,0,0-42.557-20.551V195.867a31.6,31.6,0,0,0,4.379,1.53A31.223,31.223,0,1,0,64.793,136.2l10.525-18.261a31.458,31.458,0,0,0,3.029,3.518,31.2,31.2,0,1,0,40.571-47.194l18.229-10.543a31.179,31.179,0,1,0,61.086-11.6,31.69,31.69,0,0,0-1.527-4.387H207v-5H193.963a31.24,31.24,0,0,0-24.17-13.715,23.446,23.446,0,0,1,6-3.946c3.622-1.663,7.617-2.48,11.453-3.483,4.857-1.269,9.247-2.83,13.246-5.948A22.006,22.006,0,0,0,207,7.439V0a22.012,22.012,0,0,1-6.508,8.208c-4,3.115-8.389,4.678-13.246,5.945-3.838,1-7.831,1.819-11.453,3.482a24.691,24.691,0,0,0-10.069,8.591l-2.183,3.091a31.255,31.255,0,0,0-6.682,1.769l-3.342-1.928c-5.811-3.354-11.34-3.483-17.8-2.006-3,.685-5.935,1.639-8.9,2.465a36.617,36.617,0,0,1-9.285,1.615,18.806,18.806,0,0,1-2.841-.17,22.4,22.4,0,0,1-10.342-4.269l-.456-.324c.02.185.035.372.052.556a22.483,22.483,0,0,1-1.48,11.106c-1.909,4.7-4.93,8.254-8.5,11.784-2.823,2.789-5.874,5.5-8.181,8.752a24.745,24.745,0,0,0-4.431,12.484L81,74.923a31.164,31.164,0,0,0-4.9,4.88l-3.856,0c-6.708.007-11.56,2.665-16.421,7.18-2.255,2.1-4.321,4.391-6.475,6.591a36.739,36.739,0,0,1-7.235,6.05,19.078,19.078,0,0,1-2.546,1.276,22.372,22.372,0,0,1-11.087,1.483c-.187-.016-.371-.033-.556-.053.109.153.215.305.323.457a22.481,22.481,0,0,1,4.262,10.36c.692,5.028-.15,9.617-1.482,14.465-1.052,3.83-2.344,7.7-2.717,11.678a24.754,24.754,0,0,0,2.394,13.03l1.58,3.439a31.356,31.356,0,0,0-1.812,6.68l-3.338,1.935c-5.8,3.365-8.682,8.1-10.638,14.441-.907,2.945-1.551,5.967-2.318,8.951a36.824,36.824,0,0,1-3.246,8.863,19.231,19.231,0,0,1-1.567,2.378A22.373,22.373,0,0,1,.5,205.849c-.169.078-.339.154-.508.233.169.076.339.154.508.232a22.412,22.412,0,0,1,8.86,6.837c3.11,4.006,4.67,8.4,5.937,13.269,1,3.845,1.816,7.845,3.476,11.473a24.712,24.712,0,0,0,8.578,10.087l3.086,2.189a31.377,31.377,0,0,0,1.766,6.693l-1.925,3.348c-3.348,5.824-3.476,11.36-2,17.836.684,3.005,1.636,5.944,2.459,8.913a36.774,36.774,0,0,1,1.612,9.3,18.855,18.855,0,0,1-.169,2.843,22.461,22.461,0,0,1-4.262,10.361c-.106.152-.215.3-.323.456.184-.019.371-.037.556-.052a22.373,22.373,0,0,1,11.087,1.483c4.694,1.913,8.24,4.939,11.764,8.517,2.784,2.828,5.488,5.884,8.737,8.2A24.647,24.647,0,0,0,72.2,332.5l3.763.35a31.424,31.424,0,0,0,4.872,4.913l0,3.863c.007,6.719,2.66,11.58,7.168,16.449,2.092,2.259,4.383,4.328,6.579,6.487a36.845,36.845,0,0,1,6.039,7.247,19.193,19.193,0,0,1,1.274,2.55,22.48,22.48,0,0,1,1.48,11.106c-.017.185-.035.372-.052.557.152-.109.3-.215.456-.324a22.386,22.386,0,0,1,10.342-4.269c5.019-.694,9.6.15,14.439,1.484,3.824,1.055,7.691,2.348,11.658,2.722a24.64,24.64,0,0,0,13.009-2.4l3.433-1.582a31.94,31.94,0,0,0,3.385,1.119,31.529,31.529,0,0,0,3.286.7l1.931,3.341c3.359,5.815,8.084,8.7,14.418,10.656,2.94.909,5.957,1.552,8.934,2.322a36.745,36.745,0,0,1,8.847,3.252,18.724,18.724,0,0,1,2.376,1.569,22.426,22.426,0,0,1,6.825,8.876c.078.17.156.339.232.509l.1-.218Zm0-22.269-.234.235-6.988-7,6.988-7,.234.235Zm0-34.181c-4.344-10.174-2.191-15.289,0-15.346Zm0-27.732-2.547,9.15-1.5-4.048a17.809,17.809,0,0,0-5.412-7.854,47.407,47.407,0,0,0-7.015-4.383,22.234,22.234,0,0,1-7.216-5.858,13.9,13.9,0,0,1-2.669-6.443c-.178-1.018-.306-2.007-.49-2.991-.649.76-1.255,1.552-1.916,2.345a13.857,13.857,0,0,1-5.528,4.243,11.238,11.238,0,0,1-1.647.548,23.612,23.612,0,0,1-6.011.533c-2.091-.02-4.19-.126-6.271-.048-5.173.2-8.843,1.576-12.031,4.763l-3,3,2.995-10.754,3.233-3.87a17.438,17.438,0,0,1,12.521-6.593c2.118-.224,4.245-.222,6.37-.324a20.954,20.954,0,0,0,6.143-1.024,11.457,11.457,0,0,0,1.708-.776,17.377,17.377,0,0,0,5.878-5.554c.721-1.013,1.385-2.024,2.092-3,.126,1.2.2,2.4.315,3.644a17.417,17.417,0,0,0,2.318,7.754,20.451,20.451,0,0,0,6.974,6.758,40.793,40.793,0,0,1,6.862,4.956,19.585,19.585,0,0,1,5.021,9.32l.818,3.141V329.6Zm0-19.793v-10.16a18.306,18.306,0,0,0-2.076-2.461,37.514,37.514,0,0,0-6.443-4.706,13.5,13.5,0,0,1-4.64-4.407,10.855,10.855,0,0,1-1.408-4.871,34.422,34.422,0,0,0-1.05-7.189c-.048-.155-.109-.326-.185-.511a20.923,20.923,0,0,1,4.88-1.857l1.433-.367c1.642,7.741,4.845,13.658,9.487,17.9v-4.941c-1.178-.346-2.168-3.4,0-9.148v-8.414H190.573l-28.844-16.682-16.653-28.9V189.73l16.653-28.895,28.844-16.684H207v-8.41c-2.172-5.759-1.18-8.809,0-9.152v-4.943c-4.644,4.236-7.847,10.154-9.489,17.9l-1.43-.368a20.745,20.745,0,0,1-4.881-1.856c.074-.185.137-.357.183-.511a34.4,34.4,0,0,0,1.05-7.189,10.855,10.855,0,0,1,1.408-4.871,5.871,5.871,0,0,1,.551-.768,14.127,14.127,0,0,1,3.169-2.561c1.579-1.019,3.192-1.954,4.715-3.065A20.8,20.8,0,0,0,207,113.709V101.644l-.677,3.874A14.4,14.4,0,0,1,200.1,115.4c-1.421,1.035-2.94,1.911-4.413,2.863a17.318,17.318,0,0,0-3.965,3.269,9.906,9.906,0,0,0-.9,1.259,14.361,14.361,0,0,0-1.912,6.393,33.8,33.8,0,0,1-.766,5.874,33.606,33.606,0,0,1-3.6-4.7,14.328,14.328,0,0,0-4.846-4.578,16.823,16.823,0,0,0-7.76-1.946,33.563,33.563,0,0,1-6.94-.7,16.078,16.078,0,0,1-7.419-4.581l-2.917-2.96,1.426,3.906a14.432,14.432,0,0,1-.462,11.674c-.714,1.608-1.593,3.126-2.394,4.691a17.4,17.4,0,0,0-1.8,4.817,9.718,9.718,0,0,0-.152,1.541,14.35,14.35,0,0,0,1.536,6.493,33.58,33.58,0,0,1,2.268,5.472,33.352,33.352,0,0,1-5.46-2.272,14.291,14.291,0,0,0-6.482-1.539,16.849,16.849,0,0,0-7.692,2.2,33.422,33.422,0,0,1-6.361,2.865,16.071,16.071,0,0,1-8.713-.25l-4-1.1,3.185,2.67a14.4,14.4,0,0,1,5.425,10.341c.185,1.749.183,3.506.267,5.26a17.415,17.415,0,0,0,.842,5.074,9.892,9.892,0,0,0,.638,1.411,14.328,14.328,0,0,0,4.573,4.854,33.748,33.748,0,0,1,4.693,3.6,33.457,33.457,0,0,1-5.863.767,14.294,14.294,0,0,0-6.382,1.915,16.867,16.867,0,0,0-5.562,5.761,33.667,33.667,0,0,1-4.077,5.667,16.132,16.132,0,0,1-7.669,4.148l-4.019,1.05,4.09.717a14.373,14.373,0,0,1,9.861,6.237c1.033,1.424,1.907,2.946,2.858,4.424a17.278,17.278,0,0,0,3.261,3.971,9.588,9.588,0,0,0,1.257.9,14.269,14.269,0,0,0,6.382,1.915,33.579,33.579,0,0,1,5.863.768,33.747,33.747,0,0,1-4.693,3.6,14.339,14.339,0,0,0-4.573,4.854,16.886,16.886,0,0,0-1.94,7.774,33.7,33.7,0,0,1-.7,6.949,16.119,16.119,0,0,1-4.572,7.433l-2.956,2.921,3.9-1.428a14.363,14.363,0,0,1,11.653.463c1.606.715,3.121,1.6,4.683,2.4a17.276,17.276,0,0,0,4.807,1.8,9.44,9.44,0,0,0,1.538.15,14.276,14.276,0,0,0,6.484-1.539,33.865,33.865,0,0,1,5.46-2.271,33.512,33.512,0,0,1-2.268,5.469,14.37,14.37,0,0,0-1.536,6.495,16.927,16.927,0,0,0,2.2,7.707,33.6,33.6,0,0,1,2.861,6.371,16.146,16.146,0,0,1-.25,8.726l-1.1,4.011,2.665-3.189a14.377,14.377,0,0,1,10.322-5.437c1.747-.185,3.5-.183,5.252-.267a17.271,17.271,0,0,0,5.065-.846,9.755,9.755,0,0,0,1.408-.639,14.3,14.3,0,0,0,4.846-4.58,33.671,33.671,0,0,1,3.6-4.7,33.761,33.761,0,0,1,.766,5.873,14.347,14.347,0,0,0,1.911,6.393,16.865,16.865,0,0,0,5.751,5.572,33.633,33.633,0,0,1,5.657,4.085,16.147,16.147,0,0,1,4.141,7.682L207,309.8Zm0-46.374a12.512,12.512,0,0,1-3.363-24.488l-4.547-12.859L186.8,231.961a12.477,12.477,0,1,1-5.078-5.087l5.862-12.312-12.836-4.554a12.508,12.508,0,1,1,0-7.2l12.836-4.554-5.862-12.313a12.519,12.519,0,1,1,5.078-5.086l12.291,5.871,4.547-12.858A12.512,12.512,0,0,1,207,149.384v2.828a9.681,9.681,0,0,0,0,19.356v7.665l-5.073,14.353-14.336-6.849,6.836,14.36-14.971,5.311,14.971,5.312-6.836,14.361,14.336-6.85L207,233.587v7.665a9.681,9.681,0,0,0,0,19.356v2.826Zm0-6.478a1.722,1.722,0,0,1-.39-3.313v-2.1h-2.092a1.723,1.723,0,1,1,0-1.237h2.092v-2.1A1.722,1.722,0,0,1,207,244.9v12.056Zm0-32.74-3.287-9.3-9.507,4.541,4.533-9.524-9.928-3.523,9.928-3.522-4.533-9.526,9.507,4.544L207,188.6v8.33l-1.7,4.813-5.215-2.491,2.487,5.223-5.447,1.933,5.447,1.932-2.487,5.224,5.215-2.491,1.7,4.813v8.328Zm0-15.185a2.634,2.634,0,0,1,0-5.247Zm0-41.113a1.722,1.722,0,0,1-.388-3.313v-2.1H204.52a1.723,1.723,0,1,1,0-1.237h2.09v-2.1a1.722,1.722,0,0,1,.388-3.313v12.056Zm0-97.147c-1.974-.585-3.606-5.376,0-14.373Zm0-36.392-6.3-6.313L207,21.76V34.379ZM30.144,243.9a23.5,23.5,0,0,1-3.939-6.011c-1.66-3.628-2.476-7.63-3.476-11.473-1.267-4.865-2.825-9.261-5.937-13.269a22.381,22.381,0,0,0-8.86-6.837c-.169-.078-.339-.156-.508-.232.169-.079.339-.155.508-.233a22.418,22.418,0,0,0,8.86-6.837,19.379,19.379,0,0,0,1.567-2.378,36.814,36.814,0,0,0,3.244-8.863c.768-2.984,1.41-6.006,2.318-8.951,1.374-4.457,3.2-8.115,6.178-11.065a31.306,31.306,0,0,0,13.732,25.366v26.573A31.318,31.318,0,0,0,30.14,243.906ZM86.266,71.53a23.478,23.478,0,0,1,3.227-6.422c2.307-3.254,5.358-5.963,8.181-8.752,3.572-3.53,6.592-7.082,8.5-11.784a22.48,22.48,0,0,0,1.48-11.106c-.017-.185-.035-.372-.052-.557.152.109.3.217.456.324A22.394,22.394,0,0,0,118.4,37.5a18.805,18.805,0,0,0,2.841.17,36.591,36.591,0,0,0,9.285-1.615c2.962-.824,5.9-1.778,8.9-2.463,4.538-1.037,8.617-1.282,12.656-.174a31.308,31.308,0,0,0-15.064,24.6L114.044,71.3a31.193,31.193,0,0,0-27.776.228Zm-13.91,41.531L59.093,136.075a31.243,31.243,0,0,0-23.942,14.111,23.511,23.511,0,0,1-.41-7.176c.373-3.974,1.662-7.848,2.717-11.678,1.332-4.848,2.174-9.436,1.482-14.465a22.456,22.456,0,0,0-4.262-10.36c-.106-.152-.215-.3-.323-.454l.556.052A22.351,22.351,0,0,0,46,104.62a19.046,19.046,0,0,0,2.543-1.274,36.8,36.8,0,0,0,7.235-6.05c2.153-2.2,4.219-4.493,6.475-6.589,3.413-3.172,6.823-5.426,10.874-6.489a31.341,31.341,0,0,0-.768,28.846Zm24.8-16.914C73.849,86.192,87.221,72.8,97.157,96.146ZM117.922,81.7l.052.052a24.955,24.955,0,0,1,6.131,25.151,23.357,23.357,0,0,1-17.916-2.654,44.285,44.285,0,0,0,11.736-22.547Zm-12.675,23.491a23.457,23.457,0,0,1,2.65,17.947A24.848,24.848,0,0,1,82.789,117l-.052-.052A44.163,44.163,0,0,0,105.247,105.194Zm-27.653,4.2a24.911,24.911,0,0,1,32.79-32.845,36.223,36.223,0,0,1-32.79,32.842Zm89.341-53.607C151.716,35.494,169.984,30.59,166.935,55.789Zm25.192-2.106.019.072A24.944,24.944,0,0,1,184.9,78.606a23.4,23.4,0,0,1-14.19-11.271,44.166,44.166,0,0,0,21.416-13.65Zm-22.7,13.993a23.449,23.449,0,0,1-6.664,16.869,24.89,24.89,0,0,1-18.678-17.893l-.019-.074a44.108,44.108,0,0,0,25.359,1.1ZM143.379,57.463a24.878,24.878,0,0,1,44.79-12.019,36.157,36.157,0,0,1-44.79,12.021ZM151.1,378.782a23.325,23.325,0,0,1-7.163.408c-3.967-.373-7.834-1.667-11.658-2.719-4.839-1.335-9.42-2.18-14.439-1.485a22.4,22.4,0,0,0-10.343,4.267l-.455.324c.017-.184.036-.371.052-.556a22.479,22.479,0,0,0-1.48-11.106,18.838,18.838,0,0,0-1.274-2.55,36.824,36.824,0,0,0-6.039-7.248c-2.194-2.156-4.485-4.226-6.58-6.486-3.166-3.42-5.414-6.833-6.478-10.891a31.2,31.2,0,0,0,28.8.769L137.01,354.8A31.318,31.318,0,0,0,151.1,378.78Zm15.837-21.758C169.984,382.223,151.716,377.319,166.935,357.024Zm-22.868-10.795.017-.07a24.9,24.9,0,0,1,18.678-17.893,23.458,23.458,0,0,1,6.664,16.871,44.093,44.093,0,0,0-25.359,1.094Zm26.646-.748a23.391,23.391,0,0,1,14.19-11.272,24.957,24.957,0,0,1,7.246,24.852l-.022.074a44.16,44.16,0,0,0-21.416-13.652Zm17.458,21.888a24.877,24.877,0,0,1-44.788-12.026,36.158,36.158,0,0,1,44.788,12.026ZM72.584,327.575a23.4,23.4,0,0,1-6.41-3.235c-3.249-2.311-5.952-5.367-8.739-8.2-3.524-3.58-7.07-6.606-11.764-8.519a22.349,22.349,0,0,0-11.087-1.483l-.556.052c.108-.152.217-.3.323-.454a22.483,22.483,0,0,0,4.262-10.361,18.9,18.9,0,0,0,.169-2.845,36.871,36.871,0,0,0-1.612-9.3c-.825-2.967-1.775-5.908-2.461-8.913-1.035-4.545-1.278-8.63-.174-12.675A31.243,31.243,0,0,0,59.09,276.736l13.263,23.012a31.361,31.361,0,0,0,.228,27.825Zm24.574-10.911C87.221,340.014,73.849,326.618,97.157,316.664Zm-14.418-20.8.05-.052a24.849,24.849,0,0,1,25.108-6.139,23.467,23.467,0,0,1-2.65,17.947A44.145,44.145,0,0,0,82.74,295.863Zm23.45,12.7a23.35,23.35,0,0,1,17.916-2.654,24.954,24.954,0,0,1-6.128,25.151l-.055.053A44.278,44.278,0,0,0,106.189,308.56Zm4.195,27.7A24.911,24.911,0,0,1,77.6,303.415a36.22,36.22,0,0,1,32.785,32.847Zm-53.514-89.5C36.611,262.006,31.718,243.708,56.87,246.763Zm-2.1-25.239.069-.019a24.847,24.847,0,0,1,24.808,7.258,23.421,23.421,0,0,1-11.254,14.215,44.264,44.264,0,0,0-13.626-21.454Zm13.969,22.743a23.366,23.366,0,0,1,16.84,6.674,24.892,24.892,0,0,1-17.862,18.71l-.074.02a44.315,44.315,0,0,0,1.094-25.4ZM58.541,270.355a24.943,24.943,0,0,1-12-44.868,36.291,36.291,0,0,1,12,44.868ZM56.868,166.046C31.713,169.1,36.609,150.8,56.868,166.046Zm10.776-22.908a44.315,44.315,0,0,1,1.092,25.4,23.37,23.37,0,0,0,16.84-6.674,24.9,24.9,0,0,0-17.862-18.712l-.072-.018Zm.746,26.691a44.261,44.261,0,0,1-13.628,21.453l.072.022a24.847,24.847,0,0,0,24.808-7.259,23.424,23.424,0,0,0-11.254-14.216Zm-21.85,17.488a24.943,24.943,0,0,1,12-44.866,36.293,36.293,0,0,1-12,44.866Zm117.278,68.3v0Zm-20.833-62.257v-.006h0v0Zm20.831-36.144v0Zm4.843,33.2C182.086,203.586,187.455,190.6,168.66,190.41Zm22.59-22.629C191.443,186.608,204.4,181.23,191.25,167.781Zm0,77.264C204.4,231.6,191.443,226.218,191.25,245.045Zm-22.59-22.629C187.455,222.222,182.086,209.238,168.66,222.416Zm2.875-51.755a1.72,1.72,0,0,1,2.787,1.915l1.48,1.483,1.48-1.483a1.717,1.717,0,1,1,.874.876l-1.48,1.483,1.48,1.482a1.724,1.724,0,1,1-.874.876l-1.48-1.482-1.48,1.482a1.717,1.717,0,1,1-.873-.876l1.48-1.482-1.48-1.483a1.721,1.721,0,0,1-1.914-2.791Zm-2.567-2.572a9.673,9.673,0,1,1,0,13.691A9.653,9.653,0,0,1,168.968,168.089Zm2.567,74.076a1.721,1.721,0,0,1,1.914-2.791l1.48-1.483-1.48-1.482a1.722,1.722,0,1,1,.873-.874l1.48,1.482,1.48-1.482a1.718,1.718,0,1,1,.874.874l-1.48,1.482,1.48,1.483a1.724,1.724,0,1,1-.874.876l-1.48-1.483-1.48,1.483a1.72,1.72,0,0,1-2.787,1.915Zm-2.567,2.572a9.673,9.673,0,1,1,13.667,0A9.693,9.693,0,0,1,168.968,244.737Zm-12.215-38.325a1.718,1.718,0,0,1,3.322-.62h2.092v-2.1a1.718,1.718,0,1,1,1.237,0v2.1H165.5a1.724,1.724,0,1,1,0,1.237H163.4v2.1a1.719,1.719,0,1,1-1.237,0v-2.1h-2.092a1.717,1.717,0,0,1-3.322-.617Zm-3.63,0a9.663,9.663,0,1,1,9.663,9.68A9.673,9.673,0,0,1,153.123,206.412Zm-13.641-20.641c-.124-.158-.239-.3-.35-.415a34.316,34.316,0,0,0-5.69-4.506,10.851,10.851,0,0,1-3.508-3.657,6.2,6.2,0,0,1-.389-.863,14.208,14.208,0,0,1-.629-4.03c-.091-1.88-.094-3.745-.291-5.621a20.4,20.4,0,0,0-1.964-7.078,18.159,18.159,0,0,0,3.24-.579,37.466,37.466,0,0,0,7.289-3.236,13.491,13.491,0,0,1,6.13-1.822,10.788,10.788,0,0,1,4.916,1.215,34.19,34.19,0,0,0,6.74,2.683c.156.034.336.067.531.1a20.869,20.869,0,0,1-.835,5.163l-.4,1.426c-7.6-2.474-14.383-2.63-20.418-.652l-.07.122c1.307,6.223,4.833,12.032,10.772,17.386l-1.033,1.059a20.785,20.785,0,0,1-4.044,3.306ZM158.86,154.6c-.028-.2-.058-.378-.1-.535a34.291,34.291,0,0,0-2.68-6.751,10.86,10.86,0,0,1-1.213-4.924,6.187,6.187,0,0,1,.093-.941,14.13,14.13,0,0,1,1.467-3.807c.859-1.674,1.788-3.289,2.552-5.015a20.425,20.425,0,0,0,1.831-7.113,18.064,18.064,0,0,0,3.1,1.122,37.624,37.624,0,0,0,7.927.85,13.447,13.447,0,0,1,6.217,1.493,10.812,10.812,0,0,1,3.65,3.515,34.1,34.1,0,0,0,4.5,5.7c.117.111.256.226.412.35a20.85,20.85,0,0,1-3.3,4.052l-1.057,1.035c-5.346-5.948-11.143-9.482-17.358-10.791l-.121.07c-1.977,6.043-1.819,12.841.651,20.453l-1.424.4a20.7,20.7,0,0,1-5.154.837ZM140.476,196.68l-.367-1.435a20.919,20.919,0,0,0-1.853-4.889c-.185.074-.356.137-.508.185a34.183,34.183,0,0,1-7.176,1.052A10.817,10.817,0,0,0,125.708,193a13.482,13.482,0,0,0-4.4,4.647,37.626,37.626,0,0,1-4.7,6.455,18.208,18.208,0,0,1-2.518,2.123,20.314,20.314,0,0,1,5.235,5.146c1.108,1.526,2.039,3.141,3.059,4.724a14.187,14.187,0,0,0,2.557,3.176,5.911,5.911,0,0,0,.766.55,10.8,10.8,0,0,0,4.863,1.41,34.145,34.145,0,0,1,7.176,1.052c.152.048.323.111.51.185a20.858,20.858,0,0,0,1.853-4.889l.367-1.432c-7.817-1.663-13.769-4.926-18.007-9.663v-.139c4.238-4.737,10.19-8,18.007-9.663Zm6.158-25.312C132.761,169.394,137.991,160.318,146.634,171.368Zm-5.212,17.382c.622-.353,1.18-.679,1.569-.9v1.322l-.662,1.146c-.224-.389-.545-.95-.909-1.565ZM160.2,159.3l-1.143.661c0-.45,0-1.1-.007-1.811.714.009,1.361.007,1.81.007l-.66,1.145Zm12.04-13.593C161.215,137.051,170.272,131.815,172.243,145.712Zm17.772-3.652h-1.321c.223-.387.549-.948.9-1.572.615.366,1.177.687,1.565.911Zm-3.391,132.215c-.157.124-.3.241-.415.35a34.382,34.382,0,0,0-4.5,5.7,10.822,10.822,0,0,1-3.65,3.512,5.774,5.774,0,0,1-.86.39,14.132,14.132,0,0,1-4.023.63c-1.877.093-3.739.093-5.612.291a20.307,20.307,0,0,0-7.065,1.968,17.941,17.941,0,0,0-.578-3.246,37.533,37.533,0,0,0-3.231-7.3,13.53,13.53,0,0,1-1.818-6.141,10.873,10.873,0,0,1,1.213-4.924,34.317,34.317,0,0,0,2.678-6.752c.037-.156.067-.334.1-.532a20.787,20.787,0,0,1,5.154.837l1.424.4c-2.47,7.612-2.626,14.408-.649,20.451l.121.072c6.213-1.309,12.011-4.841,17.358-10.791l1.057,1.037a20.842,20.842,0,0,1,3.3,4.052Zm3.391-3.513,1.144.661c-.388.224-.948.545-1.565.91-.349-.623-.674-1.184-.9-1.571h1.321Zm-34.5-15.9a5.366,5.366,0,0,0-.534.1,34.081,34.081,0,0,0-6.74,2.683,10.8,10.8,0,0,1-4.915,1.215,6.173,6.173,0,0,1-.94-.094,13.993,13.993,0,0,1-3.8-1.469c-1.671-.861-3.285-1.789-5.006-2.557a20.235,20.235,0,0,0-7.1-1.834,18.048,18.048,0,0,0,1.119-3.1,37.635,37.635,0,0,0,.849-7.943,13.517,13.517,0,0,1,1.491-6.231,10.8,10.8,0,0,1,3.509-3.656,34.433,34.433,0,0,0,5.689-4.506c.109-.118.226-.257.35-.413a20.785,20.785,0,0,1,4.045,3.306l1.035,1.059c-5.937,5.356-9.466,11.162-10.772,17.386l.069.124c6.033,1.978,12.819,1.821,20.418-.652l.4,1.426a20.855,20.855,0,0,1,.836,5.163Zm16.733,12.248C170.275,281.009,161.215,275.768,172.245,267.11ZM160.2,253.517l.662,1.145c-.447,0-1.094,0-1.81.005.009-.715.007-1.363.007-1.811Zm-13.567-12.063C137.991,252.5,132.761,243.43,146.634,241.454Zm-3.646-17.8v1.324c-.388-.224-.946-.55-1.568-.9.364-.615.685-1.178.909-1.567Zm-5.728-17.24C124.259,211.649,124.259,201.171,137.26,206.41Zm-35.24-60.585,4.857,1.339a19.5,19.5,0,0,0,10.566.3,40.709,40.709,0,0,0,7.714-3.476,20.394,20.394,0,0,1,9.329-2.671,17.319,17.319,0,0,1,7.862,1.867c1.131.517,2.209,1.059,3.307,1.548-.488-1.1-1.028-2.183-1.545-3.313a17.422,17.422,0,0,1-1.862-7.878,11.916,11.916,0,0,1,.183-1.867,21,21,0,0,1,2.187-5.841c.972-1.9,2.038-3.739,2.9-5.689a17.494,17.494,0,0,0,.562-14.159l-1.73-4.739,3.537,3.592a19.528,19.528,0,0,0,9,5.554,40.519,40.519,0,0,0,8.415.854,20.392,20.392,0,0,1,9.411,2.357,17.349,17.349,0,0,1,5.879,5.556c.72,1.013,1.385,2.024,2.092,3,.126-1.2.2-2.4.315-3.644a17.428,17.428,0,0,1,2.317-7.754,11.745,11.745,0,0,1,1.092-1.526,20.979,20.979,0,0,1,4.809-3.963c1.788-1.154,3.63-2.217,5.353-3.474a17.477,17.477,0,0,0,7.554-11.98L207,84.849l-2.773-10.815-1.1,4.1c-1.169,4.358-3.658,7.391-8.042,10.152-1.762,1.109-3.632,2.067-5.453,3.1a23.75,23.75,0,0,0-4.941,3.472,11.742,11.742,0,0,0-1.153,1.3,13.909,13.909,0,0,0-2.669,6.443c-.178,1.018-.306,2.007-.49,2.989-.651-.76-1.257-1.55-1.918-2.343A13.86,13.86,0,0,0,172.928,99a22.169,22.169,0,0,0-9.172-1.461,47.25,47.25,0,0,1-8.264-.283,17.764,17.764,0,0,1-8.608-4.089l-3.314-2.756,2.78,10.836-7.8-7.975,1.091,4.1c1.161,4.36.521,8.234-1.9,12.819-.972,1.843-2.113,3.611-3.176,5.415a23.749,23.749,0,0,0-2.546,5.482,11.906,11.906,0,0,0-.349,1.7,13.9,13.9,0,0,0,.9,6.917c.353.97.735,1.892,1.067,2.835-.942-.332-1.862-.715-2.829-1.069a13.839,13.839,0,0,0-6.906-.907,22.222,22.222,0,0,0-8.673,3.33,47.558,47.558,0,0,1-7.3,3.894,17.745,17.745,0,0,1-9.5.769l-4.247-.728,7.817,7.993Zm39.254-34.531a2.718,2.718,0,1,1,0,3.847A2.715,2.715,0,0,1,141.274,111.294ZM112.8,139.821a2.718,2.718,0,1,0,3.839,0A2.724,2.724,0,0,0,112.8,139.821Zm10.331-4.3a2.718,2.718,0,1,1,0,3.847,2.712,2.712,0,0,1,0-3.847Zm13.849-13.876a2.718,2.718,0,1,1,0,3.848A2.715,2.715,0,0,1,136.977,121.641Zm60.61-30.636a2.719,2.719,0,1,1-1.919,3.33,2.715,2.715,0,0,1,1.919-3.33Zm-38.9,10.441a2.719,2.719,0,1,1-1.923,3.331,2.712,2.712,0,0,1,1.923-3.331Zm11.1,1.446a2.72,2.72,0,1,1-1.921,3.332A2.716,2.716,0,0,1,169.782,102.892ZM188.7,97.814a2.721,2.721,0,1,1-1.921,3.332A2.714,2.714,0,0,1,188.7,97.814ZM157.975,311.186a2.719,2.719,0,1,1,3.324-1.921,2.722,2.722,0,0,1-3.324,1.921Zm38.9,10.441A2.72,2.72,0,1,1,200.2,319.7,2.722,2.722,0,0,1,196.875,321.627Zm-8.886-6.81a2.721,2.721,0,1,1,3.324-1.924,2.723,2.723,0,0,1-3.324,1.924Zm-18.919-5.078a2.72,2.72,0,1,1,3.327-1.922,2.72,2.72,0,0,1-3.327,1.922ZM146.751,311.8l1.335-4.865a19.59,19.59,0,0,0,.3-10.585,40.752,40.752,0,0,0-3.47-7.728,20.511,20.511,0,0,1-2.67-9.345,17.451,17.451,0,0,1,1.862-7.878c.517-1.133,1.057-2.213,1.545-3.313-1.1.489-2.176,1.03-3.307,1.548a17.354,17.354,0,0,1-7.862,1.867,11.67,11.67,0,0,1-1.866-.183,20.963,20.963,0,0,1-5.831-2.189c-1.892-.973-3.732-2.043-5.679-2.908a17.412,17.412,0,0,0-14.133-.561l-4.731,1.733,3.585-3.546a19.572,19.572,0,0,0,5.544-9.015,40.66,40.66,0,0,0,.853-8.43,20.485,20.485,0,0,1,2.355-9.43,17.368,17.368,0,0,1,5.544-5.887c1.011-.722,2.02-1.387,2.993-2.1-1.2-.126-2.4-.2-3.637-.316a17.346,17.346,0,0,1-7.741-2.321,11.581,11.581,0,0,1-1.523-1.094,20.991,20.991,0,0,1-3.956-4.817c-1.153-1.793-2.214-3.637-3.466-5.365a17.445,17.445,0,0,0-11.959-7.567l-4.961-.87-10.8,2.779,4.093,1.1c4.351,1.174,7.378,3.667,10.134,8.056,1.109,1.765,2.064,3.637,3.095,5.463a23.81,23.81,0,0,0,3.465,4.95,11.666,11.666,0,0,0,1.3,1.154,13.862,13.862,0,0,0,6.432,2.674c1.016.178,2,.308,2.984.491-.76.652-1.55,1.259-2.34,1.919a13.881,13.881,0,0,0-4.235,5.537,22.308,22.308,0,0,0-1.459,9.189,47.485,47.485,0,0,1-.282,8.278,17.848,17.848,0,0,1-4.082,8.624l-2.752,3.319,10.817-2.782-7.962,7.812,4.095-1.1c4.353-1.163,8.22-.522,12.8,1.9,1.84.974,3.6,2.117,5.406,3.182a23.7,23.7,0,0,0,5.472,2.548,11.6,11.6,0,0,0,1.7.352,13.848,13.848,0,0,0,6.9-.906c.967-.355,1.888-.737,2.829-1.07-.332.946-.714,1.865-1.067,2.835a13.9,13.9,0,0,0-.9,6.917,22.257,22.257,0,0,0,3.324,8.687,47.193,47.193,0,0,1,3.887,7.308,17.847,17.847,0,0,1,.768,9.513l-.727,4.254,7.979-7.83Zm-34.473-39.323a2.717,2.717,0,1,1,3.841,0A2.724,2.724,0,0,1,112.278,272.479Zm28.478,28.527a2.718,2.718,0,1,1,3.84,0A2.721,2.721,0,0,1,140.756,301.006Zm-4.3-10.349a2.718,2.718,0,1,1,3.841,0A2.724,2.724,0,0,1,136.459,290.657ZM122.61,276.783a2.716,2.716,0,1,1,3.838,0,2.718,2.718,0,0,1-3.838,0ZM92.025,216.068a2.716,2.716,0,1,1,3.327,1.924A2.72,2.72,0,0,1,92.025,216.068Zm10.423,38.968a2.716,2.716,0,1,1,3.326,1.924A2.721,2.721,0,0,1,102.448,255.036Zm1.445-11.115a2.716,2.716,0,1,1,3.327,1.924A2.72,2.72,0,0,1,103.893,243.921ZM98.824,224.97a2.717,2.717,0,1,1,3.327,1.922A2.72,2.72,0,0,1,98.824,224.97Zm3.817-67.9a2.716,2.716,0,1,0,3.324-1.921,2.722,2.722,0,0,0-3.324,1.921ZM92.218,196.041a2.716,2.716,0,1,0,3.327-1.924A2.72,2.72,0,0,0,92.218,196.041Zm6.8-8.9a2.716,2.716,0,1,0,3.327-1.924,2.72,2.72,0,0,0-3.327,1.924Zm5.069-18.954a2.716,2.716,0,1,0,3.327-1.922A2.721,2.721,0,0,0,104.086,168.185ZM49.792,122.9l-2.559-9.563,9.546-2.562,2.558,9.56L49.792,122.9Zm26.984,7.837C90.15,148.7,98.989,133.362,76.776,130.741Zm35.789-75.506,2.558-9.563,9.546,2.563L122.111,57.8Zm19.456,20.3C134.638,97.788,149.95,88.934,132.021,75.536Zm-8.151,288.59-9.546,2.561-2.558-9.561,9.546-2.563Zm7.823-27.032C149.622,323.7,134.31,314.843,131.693,337.094ZM56.317,301.241l-9.546-2.561,2.559-9.562,9.546,2.563Zm20.268-19.49C98.8,279.129,89.959,263.79,76.585,281.751ZM29.2,212.949l-6.987-7,6.987-7,6.987,7Zm27.282-6.73C77.03,215.075,77.03,197.362,56.484,206.219Z" fill="#fff" fill-rule="evenodd"/></g></svg>